<svg width="26" height="30" viewBox="0 0 26 30" fill="none" xmlns="http://www.w3.org/2000/svg">
<path id="Vector" d="M25.5391 7.85156L25.6094 7.80469C25.4688 7.54687 25.2578 7.3125 25.0469 7.19531L13.7266 0.679688C13.5391 0.5625 13.2812 0.515625 13 0.515625C12.7188 0.515625 12.4609 0.585938 12.2734 0.679688L1.02344 7.21875C0.625 7.45312 0.34375 8.03906 0.34375 8.48438V21.5391C0.34375 21.7969 0.390625 22.0781 0.554687 22.3359L0.507812 22.3594C0.625 22.5469 0.789063 22.7109 0.953125 22.8047L12.25 29.3438C12.4375 29.4609 12.6953 29.5078 12.9766 29.5078C13.2578 29.5078 13.5156 29.4375 13.7031 29.3438L24.9531 22.8047C25.3516 22.5703 25.6328 21.9844 25.6328 21.5391V8.46094C25.6562 8.27344 25.6328 8.0625 25.5391 7.85156ZM13 20.7422C15.1328 20.7422 17.0078 19.5703 17.9922 17.8359L21.0156 19.6172C19.4219 22.3828 16.4219 24.2578 13 24.2578C7.89062 24.2578 3.74219 20.1094 3.74219 15C3.74219 9.89062 7.89062 5.74219 13 5.74219C16.4453 5.74219 19.4453 7.64062 21.0391 10.4297L17.9922 12.1875C17.0078 10.4297 15.1328 9.25781 13 9.25781C9.83594 9.25781 7.25781 11.8359 7.25781 15C7.25781 18.1641 9.83594 20.7422 13 20.7422Z" fill="#3EF150"/>
</svg>
