<svg width="26" height="30" viewBox="0 0 26 30" fill="none" xmlns="http://www.w3.org/2000/svg">
<path id="Vector" d="M0.0532227 0.234375L2.40986 26.6913L12.9844 29.6398L23.5885 26.6805L25.947 0.234375H0.0532227ZM21.0511 6.29578L20.2667 15.1095L20.269 15.157L20.2657 15.2665V15.2655L19.7084 21.4282L19.647 21.9757L13.0001 23.8141L12.9949 23.8188L6.35955 21.9701L5.91025 16.875H9.16408L9.39494 19.4658L13.001 20.4431L13.0001 20.445V20.4445L16.6196 19.4534L17.0021 15.2344H9.43572L9.3708 14.5212L9.22291 12.8503L9.14533 11.9531H17.2896L17.5859 8.67188H5.18135L5.11643 7.95914L4.96877 6.28781L4.89096 5.39062H21.1287L21.0511 6.29578Z" fill="#3EF150"/>
</svg>
