<svg width="17" height="25" viewBox="0 0 17 25" fill="none" xmlns="http://www.w3.org/2000/svg">
<g id="Group">
<path id="Vector" opacity="0.6" d="M8.33438 0H4.16688C3.06175 0 2.00189 0.439009 1.22045 1.22045C0.439009 2.00189 0 3.06175 0 4.16687C0 5.272 0.439009 6.33186 1.22045 7.1133C2.00189 7.89474 3.06175 8.33375 4.16688 8.33375H8.33438V0Z" fill="#3EF150"/>
<path id="Vector_2" opacity="0.4" d="M8.33438 8.33252H4.16688C3.06175 8.33252 2.00189 8.77153 1.22045 9.55297C0.439009 10.3344 0 11.3943 0 12.4994C0 13.6045 0.439009 14.6644 1.22045 15.4458C2.00189 16.2273 3.06175 16.6663 4.16688 16.6663H8.33438V8.33252Z" fill="#3EF150"/>
<path id="Vector_3" d="M16.6668 12.5C16.6668 13.6051 16.2277 14.665 15.4463 15.4464C14.6649 16.2279 13.605 16.6669 12.4999 16.6669C11.3948 16.6669 10.3349 16.2279 9.55346 15.4464C8.77202 14.665 8.33301 13.6051 8.33301 12.5C8.33301 11.3949 8.77202 10.335 9.55346 9.55358C10.3349 8.77214 11.3948 8.33313 12.4999 8.33313C13.605 8.33313 14.6649 8.77214 15.4463 9.55358C16.2277 10.335 16.6668 11.3949 16.6668 12.5Z" fill="#3EF150"/>
<path id="Vector_4" opacity="0.2" d="M4.16695 16.6675H8.33445V20.8338C8.33421 21.6577 8.08968 22.463 7.63179 23.1479C7.17391 23.8329 6.52321 24.3667 5.76198 24.6819C5.00075 24.997 4.16316 25.0794 3.3551 24.9186C2.54705 24.7578 1.80481 24.3611 1.22222 23.7785C0.639636 23.1959 0.242865 22.4537 0.0820692 21.6456C-0.0787263 20.8376 0.00367425 20 0.318853 19.2387C0.634032 18.4775 1.16784 17.8268 1.85278 17.3689C2.53773 16.911 3.34306 16.6678 4.16695 16.6675Z" fill="#3EF150"/>
<path id="Vector_5" opacity="0.8" d="M8.33301 0H12.4993C13.6044 0 14.6642 0.439009 15.4457 1.22045C16.2271 2.00189 16.6661 3.06175 16.6661 4.16687C16.6661 5.272 16.2271 6.33186 15.4457 7.1133C14.6642 7.89474 13.6044 8.33375 12.4993 8.33375H8.33301V0Z" fill="#3EF150"/>
</g>
</svg>
