<svg width="30" height="30" viewBox="0 0 30 30" fill="none" xmlns="http://www.w3.org/2000/svg">
<path id="Vector" d="M29.4316 13.6629L16.3329 0.565988C16.1535 0.386553 15.9406 0.244213 15.7062 0.147099C15.4718 0.0499849 15.2206 0 14.9669 0C14.7132 0 14.462 0.0499849 14.2276 0.147099C13.9933 0.244213 13.7803 0.386553 13.601 0.565988L10.8822 3.28474L14.3322 6.73474C14.7391 6.59582 15.1769 6.57408 15.5955 6.67202C16.0141 6.76995 16.3968 6.98361 16.6999 7.2886C17.0029 7.59359 17.2141 7.97764 17.3093 8.3969C17.4046 8.81616 17.38 9.25376 17.2385 9.65974L20.5629 12.986C21.0547 12.8128 21.5908 12.8123 22.083 12.9845C22.5752 13.1567 22.994 13.4914 23.2706 13.9334C23.5472 14.3755 23.665 14.8985 23.6046 15.4164C23.5443 15.9344 23.3093 16.4163 22.9385 16.7829C22.5631 17.1606 22.0682 17.3962 21.5383 17.4496C21.0085 17.5029 20.4765 17.3706 20.0334 17.0754C19.5902 16.7801 19.2633 16.3401 19.1086 15.8305C18.9538 15.321 18.9807 14.7735 19.1847 14.2816L16.0854 11.1804V19.3422C16.5565 19.5754 16.9334 19.9631 17.1534 20.4405C17.3734 20.9179 17.4231 21.4563 17.2942 21.9659C17.1653 22.4756 16.8657 22.9256 16.4452 23.2411C16.0248 23.5566 15.5089 23.7185 14.9835 23.6997C14.4582 23.6809 13.9552 23.4827 13.5583 23.138C13.1614 22.7933 12.8946 22.323 12.8025 21.8055C12.7103 21.288 12.7982 20.7545 13.0517 20.294C13.3052 19.8335 13.7088 19.4737 14.1954 19.2747V11.0379C13.9147 10.9228 13.6595 10.7534 13.4446 10.5393C13.2297 10.3252 13.0593 10.0707 12.9432 9.79039C12.8271 9.51012 12.7676 9.20964 12.7682 8.90628C12.7688 8.60292 12.8294 8.30268 12.9466 8.02286L9.54724 4.62161L0.565988 13.6029C0.386553 13.7822 0.244213 13.9952 0.147099 14.2295C0.0499849 14.4639 0 14.7151 0 14.9688C0 15.2225 0.0499849 15.4737 0.147099 15.7081C0.244213 15.9425 0.386553 16.1554 0.565988 16.3347L13.6647 29.4335C13.8441 29.6129 14.057 29.7553 14.2914 29.8524C14.5258 29.9495 14.777 29.9995 15.0307 29.9995C15.2844 29.9995 15.5356 29.9495 15.77 29.8524C16.0043 29.7553 16.2173 29.6129 16.3966 29.4335L29.4335 16.3966C29.7954 16.0342 29.9987 15.5429 29.9987 15.0307C29.9987 14.5185 29.7954 14.0272 29.4335 13.6647" fill="#3EF150"/>
</svg>
