<svg width="50" height="50" viewBox="0 0 50 50" fill="none" xmlns="http://www.w3.org/2000/svg">
<path d="M24.2969 10.2344L28.2032 6.3282C29.2189 5.3125 30.4247 4.50681 31.7518 3.95712C33.0788 3.40743 34.5012 3.12451 35.9376 3.12451C37.374 3.12451 38.7963 3.40743 40.1234 3.95712C41.4504 4.50681 42.6563 5.3125 43.6719 6.32819C44.6876 7.34389 45.4933 8.54969 46.043 9.87676C46.5927 11.2038 46.8756 12.6262 46.8756 14.0626C46.8756 15.499 46.5927 16.9213 46.043 18.2484C45.4933 19.5755 44.6876 20.7813 43.6719 21.7969L35.8594 29.6094C34.8438 30.6252 33.638 31.431 32.3109 31.9807C30.9839 32.5304 29.5615 32.8134 28.1251 32.8134C26.6886 32.8134 25.2663 32.5304 23.9392 31.9807C22.6121 31.431 21.4064 30.6252 20.3907 29.6094C19.9769 29.1649 19.7516 28.5772 19.7621 27.97C19.7726 27.3627 20.0181 26.7832 20.4469 26.3532C20.877 25.9243 21.4565 25.6788 22.0637 25.6683C22.671 25.6578 23.2586 25.8832 23.7032 26.2969C24.2832 26.8788 24.9724 27.3404 25.7312 27.6554C26.49 27.9704 27.3035 28.1326 28.1251 28.1326C28.9466 28.1326 29.7601 27.9704 30.5189 27.6554C31.2777 27.3404 31.9669 26.8788 32.5469 26.2969L40.3594 18.4844C41.4751 17.3002 42.0856 15.728 42.0614 14.1011C42.0372 12.4743 41.3801 10.9209 40.2297 9.77047C39.0792 8.62 37.5258 7.96297 35.899 7.93875C34.2722 7.91452 32.6999 8.525 31.5157 9.64069L27.6094 13.5469C27.1649 13.9607 26.5772 14.186 25.97 14.1756C25.3627 14.1651 24.7832 13.9196 24.3532 13.4907C23.9243 13.0607 23.6788 12.4812 23.6683 11.8739C23.6578 11.2667 23.8832 10.679 24.2969 10.2344ZM9.64069 40.3594C10.2207 40.9413 10.9099 41.4029 11.6687 41.7179C12.4275 42.0329 13.241 42.1951 14.0626 42.1951C14.8841 42.1951 15.6976 42.0329 16.4564 41.7179C17.2152 41.4029 17.9044 40.9413 18.4844 40.3594L22.3907 36.4532C22.8353 36.0394 23.4229 35.8141 24.0302 35.8246C24.6374 35.8351 25.2169 36.0806 25.6469 36.5094C26.0758 36.9395 26.3213 37.519 26.3318 38.1262C26.3423 38.7335 26.117 39.3211 25.7032 39.7657L21.7969 43.6719C20.7813 44.6876 19.5754 45.4933 18.2484 46.043C16.9213 46.5927 15.499 46.8756 14.0626 46.8756C11.1616 46.8756 8.37948 45.7232 6.3282 43.6719C4.27691 41.6207 3.12451 38.8385 3.12451 35.9376C3.12451 33.0366 4.27691 30.2545 6.3282 28.2032L14.1407 20.3907C15.1564 19.3749 16.3621 18.5692 17.6892 18.0195C19.0163 17.4697 20.4386 17.1868 21.8751 17.1868C23.3115 17.1868 24.7339 17.4697 26.0609 18.0195C27.388 18.5692 28.5938 19.3749 29.6094 20.3907C30.0232 20.8353 30.2485 21.4229 30.2381 22.0302C30.2276 22.6374 29.9821 23.2169 29.5532 23.6469C29.1232 24.0758 28.5437 24.3213 27.9364 24.3318C27.3292 24.3423 26.7415 24.117 26.2969 23.7032C25.7169 23.1213 25.0277 22.6597 24.2689 22.3447C23.5101 22.0297 22.6966 21.8676 21.8751 21.8676C21.0535 21.8676 20.24 22.0297 19.4812 22.3447C18.7224 22.6597 18.0332 23.1213 17.4532 23.7032L9.64069 31.5157C9.05885 32.0957 8.59719 32.7849 8.2822 33.5437C7.9672 34.3025 7.80506 35.116 7.80506 35.9376C7.80506 36.7591 7.9672 37.5726 8.2822 38.3314C8.59719 39.0902 9.05885 39.7794 9.64069 40.3594Z" fill="#3EF150"/>
</svg>
