<svg width="30" height="27" viewBox="0 0 30 27" fill="none" xmlns="http://www.w3.org/2000/svg">
<path id="Vector" d="M17.7875 13.3628C17.7875 14.1038 17.4932 14.8146 16.9693 15.3387C16.4454 15.8628 15.7348 16.1574 14.9937 16.1578C14.2525 16.1578 13.5416 15.8633 13.0174 15.3391C12.4932 14.815 12.1987 14.104 12.1987 13.3628C12.1987 12.6217 12.4931 11.911 13.0169 11.3868C13.5408 10.8627 14.2514 10.5681 14.9925 10.5678C15.7338 10.5678 16.4447 10.8622 16.9689 11.3864C17.493 11.9106 17.7875 12.6215 17.7875 13.3628ZM21.0975 0.000255624C19.415 0.000255624 17.2137 1.20026 14.9875 3.27776C12.7625 1.21151 10.56 0.0252556 8.87875 0.0252556C8.36625 0.0252556 7.9 0.141506 7.49625 0.372756C5.7775 1.36401 5.3925 4.45276 6.28 8.32901C2.475 9.50401 0 11.3828 0 13.3628C0 15.3503 2.4875 17.234 6.30375 18.4003C5.42375 22.2915 5.81625 25.3853 7.53875 26.3753C7.93875 26.609 8.40125 26.719 8.91625 26.719C10.5975 26.719 12.8 25.519 15.0262 23.439C17.2512 25.5065 19.4538 26.6928 21.135 26.6928C21.6475 26.6928 22.1137 26.5803 22.5175 26.349C24.235 25.359 24.6212 22.2703 23.7337 18.3928C27.525 17.2278 30 15.3453 30 13.3628C30 11.3753 27.5125 9.49151 23.6963 8.32276C24.5763 4.43526 24.1837 1.33901 22.4612 0.347756C22.0449 0.11358 21.5752 -0.00630654 21.0975 0.000255624ZM21.0912 1.36276V1.37026C21.3725 1.37026 21.5987 1.42526 21.7887 1.52901C22.6212 2.00651 22.9825 3.82276 22.7012 6.15901C22.6337 6.73401 22.5237 7.34026 22.3887 7.95901C21.1106 7.64974 19.8131 7.42673 18.505 7.29151C17.726 6.21652 16.8762 5.19467 15.9613 4.23276C17.9513 2.38276 19.82 1.36776 21.0925 1.36401L21.0912 1.36276ZM8.87875 1.38776C10.1438 1.38776 12.0213 2.39776 14.0163 4.23776C13.1588 5.13776 12.3037 6.15901 11.4912 7.29026C10.1801 7.4239 8.87992 7.64861 7.6 7.96276C7.4658 7.37652 7.35984 6.78417 7.2825 6.18776C6.995 3.85276 7.35 2.03776 8.175 1.55401C8.4125 1.44151 8.675 1.39401 8.87875 1.38776ZM14.9812 5.20026C15.55 5.78526 16.1188 6.44026 16.6813 7.15526C16.1313 7.13026 15.5688 7.11276 15 7.11276C14.425 7.11276 13.8563 7.12526 13.3 7.15526C13.85 6.44026 14.4187 5.78651 14.9812 5.20026ZM15 8.48276C15.925 8.48276 16.8462 8.52526 17.7525 8.59901C18.26 9.32651 18.755 10.1028 19.2313 10.924C19.6963 11.724 20.1187 12.5365 20.5037 13.3565C20.1187 14.1753 19.6963 14.994 19.2375 15.794C18.7625 16.619 18.2713 17.404 17.7625 18.1315C15.9278 18.292 14.0826 18.2941 12.2475 18.1378C11.7227 17.3835 11.2294 16.6078 10.7687 15.8128C10.3037 15.0128 9.88125 14.2003 9.49625 13.3803C9.88252 12.548 10.305 11.7331 10.7625 10.9378C11.2375 10.1128 11.7287 9.33026 12.2375 8.60276C13.1561 8.52158 14.0778 8.4807 15 8.48026V8.48276ZM10.4562 8.80026C10.1562 9.27151 9.85625 9.75401 9.57625 10.2503C9.295 10.7378 9.0325 11.2278 8.7825 11.7178C8.45125 10.8978 8.17 10.0803 7.9375 9.28401C8.7375 9.09651 9.58125 8.92901 10.4562 8.80026ZM19.5312 8.80026C20.4 8.92901 21.2375 9.08776 22.0388 9.28401C21.8138 10.074 21.5325 10.8865 21.2138 11.7003C20.7037 10.7053 20.1425 9.7373 19.5325 8.80026H19.5312ZM23.36 9.64401C23.965 9.83151 24.54 10.0403 25.0787 10.2665C27.2437 11.1915 28.6438 12.4015 28.6438 13.3615C28.6375 14.3215 27.2375 15.5365 25.0725 16.4553C24.5475 16.6803 23.9725 16.8828 23.3787 17.0715C23.0033 15.8008 22.544 14.5564 22.0038 13.3465C22.5663 12.0753 23.0162 10.834 23.36 9.64151V9.64401ZM6.61625 9.64901C6.96375 10.849 7.4225 12.0953 7.99125 13.374C7.45495 14.5767 7.00139 15.8145 6.63375 17.079C6.02875 16.8915 5.45375 16.6815 4.92125 16.454C2.75625 15.5328 1.35625 14.3215 1.35625 13.3615C1.35625 12.4015 2.75625 11.184 4.92125 10.2665C5.44625 10.0415 6.02125 9.83901 6.61625 9.64901ZM21.2138 14.999C21.545 15.8203 21.8262 16.639 22.0587 17.434C21.2587 17.6303 20.4137 17.7965 19.5387 17.9215C20.148 16.9772 20.7063 16.0017 21.2138 14.999ZM8.7825 15.024C9.0325 15.514 9.295 16.0028 9.5825 16.4928C9.87 16.9803 10.1638 17.4578 10.4638 17.9215C9.6209 17.7996 8.78416 17.6386 7.95625 17.439C8.18125 16.6515 8.46375 15.8365 8.78125 15.0228L8.7825 15.024ZM22.4 18.7578C22.54 19.374 22.65 19.9678 22.7175 20.5365C23.005 22.8715 22.65 24.6865 21.825 25.1715C21.6412 25.284 21.4025 25.3315 21.1212 25.3315C19.8562 25.3315 17.9787 24.3228 15.9837 22.4815C16.8412 21.5815 17.6963 20.5615 18.5088 19.4315C19.8925 19.284 21.2013 19.0578 22.4 18.7578ZM7.6125 18.7703C8.8125 19.0628 10.12 19.289 11.4962 19.4353C12.3212 20.5665 13.1775 21.594 14.04 22.4928C12.0463 24.3465 10.175 25.3615 8.9025 25.3615C8.66211 25.3634 8.42486 25.3068 8.21125 25.1965C7.37875 24.7215 7.0175 22.904 7.29875 20.5678C7.36625 19.9928 7.4775 19.3878 7.6125 18.7703ZM13.3125 19.5703C13.8625 19.5953 14.425 19.6128 14.9937 19.6128C15.5687 19.6128 16.1375 19.6003 16.6937 19.5703C16.1437 20.2853 15.575 20.939 15.0125 21.5265C14.4438 20.939 13.875 20.2853 13.3125 19.5703Z" fill="#3EF150"/>
</svg>
